<svg width="20" height="21" viewBox="0 0 20 21" fill="none" xmlns="http://www.w3.org/2000/svg">
<path d="M10 0.714355C11.3261 0.714355 12.5979 1.24114 13.5355 2.17882C14.4732 3.1165 15 4.38827 15 5.71435C15 7.04044 14.4732 8.31221 13.5355 9.24989C12.5979 10.1876 11.3261 10.7144 10 10.7144C8.67392 10.7144 7.40215 10.1876 6.46447 9.24989C5.52678 8.31221 5 7.04044 5 5.71435C5 4.38827 5.52678 3.1165 6.46447 2.17882C7.40215 1.24114 8.67392 0.714355 10 0.714355M10 13.2144C15.525 13.2144 20 15.4519 20 18.2144V20.7144H0V18.2144C0 15.4519 4.475 13.2144 10 13.2144Z" fill="white"/>
</svg>
