<svg width="222" height="204" viewBox="0 0 222 204" fill="none" xmlns="http://www.w3.org/2000/svg">
<g filter="url(#filter0_bd_1_5)">
<path d="M141.602 13.3769C149.964 4.4799 164.785 11.8346 162.758 23.8743L156.427 61.4614C155.347 67.8785 159.436 74.0317 165.771 75.5201L202.877 84.238C214.763 87.0305 215.804 103.544 204.364 107.808L168.647 121.119C162.549 123.392 159.265 130.01 161.144 136.24L172.147 172.734C175.672 184.424 161.891 193.582 152.478 185.807L123.092 161.531C118.075 157.386 110.702 157.851 106.245 162.593L80.1422 190.369C71.781 199.266 56.959 191.911 58.9867 179.872L65.3172 142.285C66.3979 135.868 62.3084 129.714 55.9734 128.226L18.8673 119.508C6.98169 116.716 5.94007 100.202 17.3806 95.9382L53.0972 82.627C59.195 80.3544 62.479 73.7362 60.6005 67.5057L49.5974 31.0119C46.073 19.3224 59.8533 10.1636 69.2661 17.9395L98.6523 42.2154C103.669 46.3599 111.043 45.8948 115.499 41.1527L141.602 13.3769Z" fill="url(#paint0_linear_1_5)" shape-rendering="crispEdges"/>
<path d="M141.743 13.5089C149.973 4.75093 164.564 11.9907 162.568 23.8423L156.237 61.4294C155.14 67.9468 159.293 74.1961 165.727 75.7077L202.833 84.4257C214.533 87.1745 215.558 103.43 204.297 107.627L168.58 120.938C162.387 123.247 159.052 129.968 160.959 136.296L171.962 172.79C175.432 184.297 161.867 193.312 152.601 185.658L123.215 161.382C118.12 157.173 110.631 157.645 106.105 162.461L80.0017 190.237C71.7711 198.995 57.1808 191.755 59.1768 179.904L65.5072 142.317C66.6049 135.799 62.4515 129.55 56.0175 128.038L18.9114 119.32C7.21149 116.572 6.18615 100.316 17.4479 96.1189L53.1645 82.8076C59.3576 80.4995 62.6929 73.7779 60.785 67.45L49.782 30.9563C46.3126 19.4494 59.8776 10.4337 69.1433 18.0881L98.5295 42.364C103.625 46.5733 111.114 46.1009 115.64 41.2847L141.743 13.5089Z" stroke="url(#paint1_linear_1_5)" stroke-width="0.385524" shape-rendering="crispEdges"/>
</g>
<defs>
<filter id="filter0_bd_1_5" x="0.483923" y="0.961702" width="220.777" height="202.594" filterUnits="userSpaceOnUse" color-interpolation-filters="sRGB">
<feFlood flood-opacity="0" result="BackgroundImageFix"/>
<feGaussianBlur in="BackgroundImage" stdDeviation="3.85524"/>
<feComposite in2="SourceAlpha" operator="in" result="effect1_backgroundBlur_1_5"/>
<feColorMatrix in="SourceAlpha" type="matrix" values="0 0 0 0 0 0 0 0 0 0 0 0 0 0 0 0 0 0 127 0" result="hardAlpha"/>
<feMorphology radius="0.385524" operator="erode" in="SourceAlpha" result="effect2_dropShadow_1_5"/>
<feOffset dy="0.385524"/>
<feGaussianBlur stdDeviation="4.62629"/>
<feComposite in2="hardAlpha" operator="out"/>
<feColorMatrix type="matrix" values="0 0 0 0 0 0 0 0 0 0 0 0 0 0 0 0 0 0 0.1 0"/>
<feBlend mode="normal" in2="effect1_backgroundBlur_1_5" result="effect2_dropShadow_1_5"/>
<feBlend mode="normal" in="SourceGraphic" in2="effect2_dropShadow_1_5" result="shape"/>
</filter>
<linearGradient id="paint0_linear_1_5" x1="48.9988" y1="-35.0866" x2="236.109" y2="179.479" gradientUnits="userSpaceOnUse">
<stop stop-color="white" stop-opacity="0.4"/>
<stop offset="1" stop-color="white" stop-opacity="0.1"/>
</linearGradient>
<linearGradient id="paint1_linear_1_5" x1="41.5186" y1="-55.2545" x2="263.594" y2="180.199" gradientUnits="userSpaceOnUse">
<stop stop-color="white" stop-opacity="0.5"/>
<stop offset="0.445488" stop-color="white" stop-opacity="0"/>
<stop offset="0.669846" stop-color="#FF48DB" stop-opacity="0"/>
<stop offset="1" stop-color="#FF48DB" stop-opacity="0.5"/>
</linearGradient>
</defs>
</svg>
