<svg width="130" height="80" viewBox="0 0 130 80" fill="none" xmlns="http://www.w3.org/2000/svg">
<path d="M14.7656 0.886719C17.2969 0.886719 19.5 2.01172 21.375 4.26172L21.2344 4.40234H21.0938C19.5938 2.99609 17.4844 2.29297 14.7656 2.29297C10.875 2.29297 7.54688 4.26172 4.78125 8.19922C4.3125 9.01953 4.07812 9.86328 4.07812 10.7305C4.07812 12.8633 6.60938 15.0195 11.6719 17.1992C20.0156 21.3242 24.1875 25.168 24.1875 28.7305V29.5742C24.1875 32.457 21.75 35.4102 16.875 38.4336C13.6172 39.7461 11.3672 40.4023 10.125 40.4023H8.4375C4.125 40.1445 1.45312 38.832 0.421875 36.4648L0.28125 35.3398C0.28125 31.8242 3.70312 29.293 10.5469 27.7461L13.5 27.6055C16.0547 27.6055 17.8359 27.9805 18.8438 28.7305H18.7031L17.0156 28.3086H16.0312C11.3672 28.3086 7.10156 29.668 3.23438 32.3867C2.41406 33.207 1.89844 34.1914 1.6875 35.3398C1.6875 37.1445 3.84375 38.3633 8.15625 38.9961H9.14062C12.2109 38.9961 15.3984 37.8242 18.7031 35.4805C21.2344 33.207 22.5 31.5664 22.5 30.5586L22.3594 30.418V30.2773C22.6406 30.2773 22.7812 30.043 22.7812 29.5742V29.1523C22.7812 25.543 18.0938 21.6523 8.71875 17.4805C5.48438 15.8867 3.51562 14.0117 2.8125 11.8555L2.67188 11.0117V9.88672C2.67188 8.01172 4.17188 5.90234 7.17188 3.55859C9.25781 1.77734 11.7891 0.886719 14.7656 0.886719ZM18.9844 28.7305H19.2656L19.5469 29.0117H19.2656L18.9844 28.7305ZM20.6719 29.4336H20.9531L21.2344 29.7148H20.9531L20.6719 29.4336ZM27.2812 16.7422C27.6562 16.8828 27.8438 17.0234 27.8438 17.1641C27.1875 21.8047 26.8594 24.9922 26.8594 26.7266V27.9922H27C27.5156 24.9922 28.3125 23.4922 29.3906 23.4922L29.8125 23.3516C31.2188 23.3516 31.9219 25.4141 31.9219 29.5391L31.2188 29.9609C30.5625 29.9609 30.1875 28.5078 30.0938 25.6016L29.9531 25.0391L29.8125 24.8984H29.6719C28.9688 25.6016 28.4062 27.3359 27.9844 30.1016C27.7031 30.6641 27.3281 30.9453 26.8594 30.9453C25.9453 30.9453 25.4297 29.7734 25.3125 27.4297C25.6641 20.3047 26.3203 16.7422 27.2812 16.7422ZM39.9727 22.3672H40.3945C40.582 22.3672 40.7695 22.6484 40.957 23.2109C40.7695 23.6328 40.6758 24.2422 40.6758 25.0391V25.3203C40.6758 27.1953 41.8477 28.1328 44.1914 28.1328H45.0352C45.5508 28.1328 46.3477 27.9453 47.4258 27.5703H47.5664C45.9023 28.7891 44.3555 29.3984 42.9258 29.3984H42.5039C41.168 29.3984 40.1836 28.6484 39.5508 27.1484C38.168 29.1172 36.9023 30.1016 35.7539 30.1016H35.0508C34.0195 29.9141 33.5039 29.3984 33.5039 28.5547V27.7109C34.0195 25.1797 35.2852 23.9141 37.3008 23.9141L37.4414 23.7734L39.1289 24.1953V24.0547C39.1289 23.2578 39.4102 22.6953 39.9727 22.3672ZM34.9102 28.1328V28.2734L35.332 28.6953H35.4727C36.668 28.6953 37.7461 27.5234 38.707 25.1797H38.5664C36.668 25.1797 35.4961 25.8828 35.0508 27.2891L34.9102 28.1328ZM47.3906 20.9609H48.7969C51.4219 21.2422 52.7344 22.3203 52.7344 24.1953V25.0391C52.7344 27.125 51.1406 28.9531 47.9531 30.5234L47.5312 30.9453V35.5859C47.6016 38.3047 47.8359 39.6641 48.2344 39.6641L48.375 38.9609L47.8125 37.8359V37.6953H47.9531C48.8906 38.5156 49.3594 39.3594 49.3594 40.2266C49.1719 40.8828 48.7969 41.2109 48.2344 41.2109H47.6719C46.6406 40.8359 46.125 39.0547 46.125 35.8672L45.9844 33.4766L46.125 31.0859H45.2812C43.7812 30.8984 43.0312 30.2891 43.0312 29.2578V28.9766C43.0312 28.4609 43.2188 28.1328 43.5938 27.9922H43.7344L43.5938 28.6953C43.8516 29.3516 44.6484 29.6797 45.9844 29.6797L46.125 29.5391V26.5859L45.9844 22.7891H45.7031L43.5938 23.4922L43.0312 23.0703V22.6484C44.1328 21.5234 45.5859 20.9609 47.3906 20.9609ZM47.25 22.3672C47.5312 23.9609 47.6719 26.2109 47.6719 29.1172C50.1094 27.7344 51.3281 26.2344 51.3281 24.6172C51.3281 23.1172 50.25 22.3672 48.0938 22.3672H47.25ZM55.0195 21.2773H55.1602L55.7227 21.8398V21.9805L55.1602 27.8867L55.4414 30.9805L55.0195 31.1211C54.1758 30.8398 53.7539 30.043 53.7539 28.7305V27.4648C54.0352 23.3398 54.457 21.2773 55.0195 21.2773ZM55.6523 15.7578H55.9336C56.4961 15.7578 57.0117 16.1797 57.4805 17.0234V17.7266C57.4805 18.2422 57.1523 18.7109 56.4961 19.1328H56.0742C55.1367 18.9922 54.668 18.5703 54.668 17.8672V17.3047C54.668 16.7422 54.9961 16.2266 55.6523 15.7578ZM58.7109 18.9219H59.1328C59.4141 19.0156 59.5547 19.2969 59.5547 19.7656V20.4688L58.9922 27.2188V27.3594H59.1328C60.0469 23.5156 60.8438 21.5938 61.5234 21.5938H61.6641C62.7891 21.5938 63.3516 23.4219 63.3516 27.0781C64.125 31.1094 65.0156 33.125 66.0234 33.125C66.3047 33.125 66.8203 32.7969 67.5703 32.1406V32.2812C66.8906 33.4062 66.1875 33.9688 65.4609 33.9688H65.1797C63.3984 33.9688 62.2266 30.6875 61.6641 24.125H61.5234C60.2578 29.0234 59.4141 31.8359 58.9922 32.5625L58.5703 32.8438H58.1484C57.5859 32.5859 57.3047 31.9766 57.3047 31.0156C57.7969 22.9531 58.2656 18.9219 58.7109 18.9219ZM73.3711 19.3438C73.8164 19.3438 74.1445 19.8594 74.3555 20.8906C74.3555 21.875 73.9336 23.3281 73.0898 25.25V25.8125L73.5117 35.9375L78.5742 34.6719V34.9531C75.5742 35.6797 73.8867 36.1953 73.5117 36.5L73.9336 43.6719L73.5117 43.9531H73.0898C69.0117 42.2891 64.7461 41.3984 60.293 41.2812C57.9492 40.9062 56.7773 40.4844 56.7773 40.0156V39.4531C56.7773 39.0312 58.793 38.75 62.8242 38.6094L71.9648 36.2188V35.7969L71.6836 27.2188H71.543C70.2773 28.4375 69.2461 29.0469 68.4492 29.0469H68.168C66.8555 28.7188 66.1992 28.1094 66.1992 27.2188V26.0938C66.9258 23.2812 68.1445 21.875 69.8555 21.875H69.9961C70.6055 21.875 71.168 22.1094 71.6836 22.5781H71.8242C71.9883 20.4219 72.457 19.3438 73.2305 19.3438H73.3711ZM67.6055 26.7969C67.6055 27.1953 67.8398 27.4766 68.3086 27.6406C69.2227 27.6406 70.3008 26.5625 71.543 24.4062V24.125C71.543 23.8203 70.9805 23.5391 69.8555 23.2812C68.3555 23.9844 67.6055 25.1562 67.6055 26.7969ZM62.543 39.875V40.0156C68.4492 40.7422 71.4023 41.3516 71.4023 41.8438L72.3867 42.125V41.9844L72.1055 36.9219H71.9648C67.7227 38.4219 64.582 39.4062 62.543 39.875ZM91.793 21.2773H91.9336L92.4961 21.8398V21.9805L91.9336 27.8867L92.2148 30.9805L91.793 31.1211C90.9492 30.8398 90.5273 30.043 90.5273 28.7305V27.4648C90.8086 23.3398 91.2305 21.2773 91.793 21.2773ZM92.4258 15.7578H92.707C93.2695 15.7578 93.7852 16.1797 94.2539 17.0234V17.7266C94.2539 18.2422 93.9258 18.7109 93.2695 19.1328H92.8477C91.9102 18.9922 91.4414 18.5703 91.4414 17.8672V17.3047C91.4414 16.7422 91.7695 16.2266 92.4258 15.7578ZM101.074 8.69141H101.215L101.637 9.11328L100.23 21.4883L100.09 26.1289V27.1133C101.801 25.8008 102.656 24.7227 102.656 23.8789H102.797V24.0195C102.797 25.0977 101.941 26.7383 100.23 28.9414L101.25 32.4219L101.109 32.5625H100.969C99.5625 31.5312 98.8945 30.6523 98.9648 29.9258H98.8242C97.8164 30.3008 97.0195 30.4883 96.4336 30.4883H96.293C94.9805 30.4883 94.2305 29.6914 94.043 28.0977V27.8164C94.043 25.707 95.0742 24.3477 97.1367 23.7383H97.9805L98.6836 23.8789C99.4336 13.7539 100.23 8.69141 101.074 8.69141ZM95.4492 27.957C95.5664 28.707 95.8945 29.082 96.4336 29.082C97.1602 29.082 97.9102 28.7539 98.6836 28.0977V27.1133L98.543 26.5508L98.6836 26.4102L98.543 25.707V25.5664L98.6836 25.4258L98.543 24.8633H98.1211C96.6914 24.8633 95.8008 25.8945 95.4492 27.957ZM107.613 21.6992H108.316C109.254 21.8867 109.723 22.3555 109.723 23.1055V23.5273C109.723 25.2148 108.176 26.7617 105.082 28.168L104.238 28.3086H103.254C103.254 28.9648 103.676 29.293 104.52 29.293H105.363C106.746 29.293 109.465 28.7773 113.52 27.7461C110.613 29.8086 107.801 30.8398 105.082 30.8398C102.926 30.8398 101.848 30.1836 101.848 28.8711V28.3086C101.848 26.832 103.066 24.9102 105.504 22.543C106.348 21.9805 107.051 21.6992 107.613 21.6992ZM104.098 26.9023C105.738 26.5273 107.145 25.4961 108.316 23.8086V23.3867L108.035 23.1055C106.582 23.1055 105.223 24.3711 103.957 26.9023H104.098ZM119.145 22.3672H119.566C119.754 22.3672 119.941 22.6484 120.129 23.2109C119.941 23.6328 119.848 24.2422 119.848 25.0391V25.3203C119.848 27.1953 121.02 28.1328 123.363 28.1328H124.207C124.723 28.1328 125.52 27.9453 126.598 27.5703H126.738C125.074 28.7891 123.527 29.3984 122.098 29.3984H121.676C120.34 29.3984 119.355 28.6484 118.723 27.1484C117.34 29.1172 116.074 30.1016 114.926 30.1016H114.223C113.191 29.9141 112.676 29.3984 112.676 28.5547V27.7109C113.191 25.1797 114.457 23.9141 116.473 23.9141L116.613 23.7734L118.301 24.1953V24.0547C118.301 23.2578 118.582 22.6953 119.145 22.3672ZM114.082 28.1328V28.2734L114.504 28.6953H114.645C115.84 28.6953 116.918 27.5234 117.879 25.1797H117.738C115.84 25.1797 114.668 25.8828 114.223 27.2891L114.082 28.1328ZM126.703 20.8906C127.172 20.8906 127.594 21.1719 127.969 21.7344V22.0156L127.547 22.4375L127.406 22.2969C126.023 22.4141 125.273 22.6953 125.156 23.1406C125.766 24.0781 127.078 25.2969 129.094 26.7969C129.469 27.4297 129.656 27.9453 129.656 28.3438V28.7656C129.656 29.9844 128.719 30.7812 126.844 31.1562H126.422C125.297 30.9219 124.734 30.3594 124.734 29.4688V29.1875L125.156 28.7656H125.297C125.391 29.4219 125.906 29.75 126.844 29.75C127.781 29.4922 128.25 29.0234 128.25 28.3438C128.25 28.0156 127.125 26.9844 124.875 25.25C124.031 24.2422 123.609 23.4922 123.609 23C123.609 22.0156 124.641 21.3125 126.703 20.8906ZM2.07422 65.2773H2.21484L2.77734 65.8398V65.9805L2.21484 71.8867L2.49609 74.9805L2.07422 75.1211C1.23047 74.8398 0.808594 74.043 0.808594 72.7305V71.4648C1.08984 67.3398 1.51172 65.2773 2.07422 65.2773ZM2.70703 59.7578H2.98828C3.55078 59.7578 4.06641 60.1797 4.53516 61.0234V61.7266C4.53516 62.2422 4.20703 62.7109 3.55078 63.1328H3.12891C2.19141 62.9922 1.72266 62.5703 1.72266 61.8672V61.3047C1.72266 60.7422 2.05078 60.2266 2.70703 59.7578ZM5.76562 62.9219H6.1875C6.46875 63.0156 6.60938 63.2969 6.60938 63.7656V64.4688L6.04688 71.2188V71.3594H6.1875C7.10156 67.5156 7.89844 65.5938 8.57812 65.5938H8.71875C9.84375 65.5938 10.4062 67.4219 10.4062 71.0781C11.1797 75.1094 12.0703 77.125 13.0781 77.125C13.3594 77.125 13.875 76.7969 14.625 76.1406V76.2812C13.9453 77.4062 13.2422 77.9688 12.5156 77.9688H12.2344C10.4531 77.9688 9.28125 74.6875 8.71875 68.125H8.57812C7.3125 73.0234 6.46875 75.8359 6.04688 76.5625L5.625 76.8438H5.20312C4.64062 76.5859 4.35938 75.9766 4.35938 75.0156C4.85156 66.9531 5.32031 62.9219 5.76562 62.9219ZM15.082 55.3281H15.5039C15.9727 55.3281 16.207 56.5469 16.207 58.9844V59.9688H16.3477L20.2852 59.125H21.832C22.957 59.125 23.9883 59.8281 24.9258 61.2344V61.5156H24.7852C23.8945 60.7656 23.0039 60.3906 22.1133 60.3906C17.9883 60.8125 15.9258 61.4219 15.9258 62.2188C15.082 68.875 14.6602 73.2344 14.6602 75.2969V75.8594H14.8008V75.4375H15.082V76.4219C15.082 77.0781 14.8008 77.4062 14.2383 77.4062C13.582 77.125 13.2539 76.6562 13.2539 76V74.7344C13.2539 72.3906 13.6758 68.2188 14.5195 62.2188H14.3789L10.582 62.9219H9.73828L9.17578 62.3594C9.17578 61.9609 11.0039 61.3516 14.6602 60.5312V57.5781L14.5195 56.3125C14.6836 55.6562 14.8711 55.3281 15.082 55.3281ZM22.7461 65.9453C23.7773 66.0156 24.293 66.4375 24.293 67.2109L23.7305 67.6328L23.5898 67.4922H23.4492V67.6328C24.293 68.6406 24.7148 69.3906 24.7148 69.8828V70.8672C23.7305 73.3984 22.0898 74.6641 19.793 74.6641H18.9492C17.6367 74.3594 16.9805 73.7031 16.9805 72.6953V72.2734C16.9805 70.5156 18.4336 68.5469 21.3398 66.3672L22.7461 65.9453ZM21.1992 68.1953L19.9336 69.6016V70.7266H19.6523V70.0234C19.3008 70.0234 18.8789 70.8203 18.3867 72.4141C18.3867 72.9766 18.7148 73.2578 19.3711 73.2578H19.9336C22.1836 72.5078 23.3086 71.5703 23.3086 70.4453V70.3047C22.9102 68.8984 22.207 68.1953 21.1992 68.1953ZM42.6797 48.0508C48.8906 48.0508 54.7969 49.082 60.3984 51.1445C63.3984 52.5977 64.8984 54.2852 64.8984 56.207V56.4883C64.8984 59.5586 60.2109 62.8398 50.8359 66.332L51.1172 79.4102L50.6953 79.6914H50.2734C49.7578 79.6914 49.4297 78.4258 49.2891 75.8945C47.8828 71.0898 46.9922 68.3242 46.6172 67.5977C43.7578 68.5352 41.0391 69.0039 38.4609 69.0039H37.4766C33.3047 69.0039 30.8203 68.4414 30.0234 67.3164H30.1641C30.9609 67.9727 32.9297 68.3008 36.0703 68.3008C40.4766 67.6445 43.8047 66.9414 46.0547 66.1914C44.8828 63.2148 41.8359 59.4648 36.9141 54.9414C33.6328 52.293 31.9922 50.6992 31.9922 50.1602V49.7383C31.9922 48.7773 35.4141 48.2148 42.2578 48.0508H42.6797ZM33.6797 50.1602C38.625 54.3086 42.3281 57.9648 44.7891 61.1289L47.6016 65.7695L49.2891 65.3477C48.9141 60.5898 48.3047 57.0742 47.4609 54.8008L46.4766 52.832L46.6172 52.6914H46.7578C48.0469 54.0742 49.2188 56.9336 50.2734 61.2695L50.6953 64.9258C59.2266 61.5742 63.4922 58.6211 63.4922 56.0664C63.4922 53.8867 59.8359 52.0117 52.5234 50.4414C49.4766 49.8789 46.3359 49.5977 43.1016 49.5977C38.7891 49.5977 35.6484 49.7852 33.6797 50.1602ZM48.1641 67.1758L49.2891 70.9727H49.4297V67.1758L49.1484 66.8945L48.1641 67.1758ZM59.9766 64.9609C61.1953 64.9609 61.7812 65.3594 61.7344 66.1562C61.6875 66.9531 61.0078 67.0234 59.6953 66.3672C57.2109 67.1875 55.9688 68.3242 55.9688 69.7773L55.8281 73.6445V73.7852L56.1094 74.207V75.332L55.5469 75.8945C54.7031 75.8945 54.2812 74.9102 54.2812 72.9414L54.5625 69.918C54.2812 69.918 54.1406 69.8242 54.1406 69.6367V69.3555C54.6094 68.207 54.9844 66.707 55.2656 64.8555L55.4062 64.7148H55.6875C55.9688 64.7148 56.1094 65.3711 56.1094 66.6836C57.4219 65.5352 58.7109 64.9609 59.9766 64.9609ZM66.6914 65.9453C67.7227 66.0156 68.2383 66.4375 68.2383 67.2109L67.6758 67.6328L67.5352 67.4922H67.3945V67.6328C68.2383 68.6406 68.6602 69.3906 68.6602 69.8828V70.8672C67.6758 73.3984 66.0352 74.6641 63.7383 74.6641H62.8945C61.582 74.3594 60.9258 73.7031 60.9258 72.6953V72.2734C60.9258 70.5156 62.3789 68.5469 65.2852 66.3672L66.6914 65.9453ZM65.1445 68.1953L63.8789 69.6016V70.7266H63.5977V70.0234C63.2461 70.0234 62.8242 70.8203 62.332 72.4141C62.332 72.9766 62.6602 73.2578 63.3164 73.2578H63.8789C66.1289 72.5078 67.2539 71.5703 67.2539 70.4453V70.3047C66.8555 68.8984 66.1523 68.1953 65.1445 68.1953ZM76.1133 52.6914H76.2539L76.6758 53.1133L75.2695 65.4883L75.1289 70.1289V71.1133C76.8398 69.8008 77.6953 68.7227 77.6953 67.8789H77.8359V68.0195C77.8359 69.0977 76.9805 70.7383 75.2695 72.9414L76.2891 76.4219L76.1484 76.5625H76.0078C74.6016 75.5312 73.9336 74.6523 74.0039 73.9258H73.8633C72.8555 74.3008 72.0586 74.4883 71.4727 74.4883H71.332C70.0195 74.4883 69.2695 73.6914 69.082 72.0977V71.8164C69.082 69.707 70.1133 68.3477 72.1758 67.7383H73.0195L73.7227 67.8789C74.4727 57.7539 75.2695 52.6914 76.1133 52.6914ZM70.4883 71.957C70.6055 72.707 70.9336 73.082 71.4727 73.082C72.1992 73.082 72.9492 72.7539 73.7227 72.0977V71.1133L73.582 70.5508L73.7227 70.4102L73.582 69.707V69.5664L73.7227 69.4258L73.582 68.8633H73.1602C71.7305 68.8633 70.8398 69.8945 70.4883 71.957ZM79.2773 66.0156H79.5586L79.8398 66.2969V66.5781C78.9023 69.5312 78.4336 71.4531 78.4336 72.3438V73.75L78.7148 74.0312C80.3789 72.5547 81.9258 70.5859 83.3555 68.125L83.918 67.9844H84.0586L84.6211 68.6875L84.1992 71.6406C84.1992 72.2031 84.5273 72.7188 85.1836 73.1875H87.0117L90.3867 72.9062V73.1875L86.168 74.5938H85.3242C83.918 74.5938 83.0742 73.6562 82.793 71.7812C80.9414 74.2188 79.582 75.4375 78.7148 75.4375H78.0117C77.2617 74.9453 76.8867 74.1484 76.8867 73.0469C76.8867 71.3594 77.4023 69.25 78.4336 66.7188L79.2773 66.0156ZM90.7031 65.9805H91.125C92.3438 66.1445 92.9531 66.6602 92.9531 67.5273V67.668L92.6719 67.9492H92.3906C92.3906 67.5742 92.0625 67.3867 91.4062 67.3867H90.9844C89.4609 67.3867 88.3359 68.8867 87.6094 71.8867V72.0273C87.6094 72.9648 88.4062 73.4336 90 73.4336H90.1406C91.5234 73.4336 93.0703 73.1055 94.7812 72.4492V72.7305C92.7656 74.1367 91.4531 74.8398 90.8438 74.8398H89.5781C87.6797 74.8398 86.5547 74.043 86.2031 72.4492V71.7461C86.2031 70.2227 87 68.582 88.5938 66.8242C89.4844 66.2617 90.1875 65.9805 90.7031 65.9805ZM97.5586 55.3281H97.9805C98.4492 55.3281 98.6836 56.5469 98.6836 58.9844V59.9688H98.8242L102.762 59.125H104.309C105.434 59.125 106.465 59.8281 107.402 61.2344V61.5156H107.262C106.371 60.7656 105.48 60.3906 104.59 60.3906C100.465 60.8125 98.4023 61.4219 98.4023 62.2188C97.5586 68.875 97.1367 73.2344 97.1367 75.2969V75.8594H97.2773V75.4375H97.5586V76.4219C97.5586 77.0781 97.2773 77.4062 96.7148 77.4062C96.0586 77.125 95.7305 76.6562 95.7305 76V74.7344C95.7305 72.3906 96.1523 68.2188 96.9961 62.2188H96.8555L93.0586 62.9219H92.2148L91.6523 62.3594C91.6523 61.9609 93.4805 61.3516 97.1367 60.5312V57.5781L96.9961 56.3125C97.1602 55.6562 97.3477 55.3281 97.5586 55.3281ZM103.289 64.8906C103.758 64.8906 104.18 65.1719 104.555 65.7344V66.0156L104.133 66.4375L103.992 66.2969C102.609 66.4141 101.859 66.6953 101.742 67.1406C102.352 68.0781 103.664 69.2969 105.68 70.7969C106.055 71.4297 106.242 71.9453 106.242 72.3438V72.7656C106.242 73.9844 105.305 74.7812 103.43 75.1562H103.008C101.883 74.9219 101.32 74.3594 101.32 73.4688V73.1875L101.742 72.7656H101.883C101.977 73.4219 102.492 73.75 103.43 73.75C104.367 73.4922 104.836 73.0234 104.836 72.3438C104.836 72.0156 103.711 70.9844 101.461 69.25C100.617 68.2422 100.195 67.4922 100.195 67C100.195 66.0156 101.227 65.3125 103.289 64.8906ZM108.809 71.5703H109.09C109.652 71.5703 110.168 71.9922 110.637 72.8359V73.5391C110.637 74.0547 110.309 74.5234 109.652 74.9453H109.23C108.293 74.8047 107.824 74.3828 107.824 73.6797V73.1172C107.824 72.5547 108.152 72.0391 108.809 71.5703Z" fill="white"/>
</svg>
